<svg width="38" height="38" viewBox="0 0 38 38" fill="none" xmlns="http://www.w3.org/2000/svg">
<path d="M9.2625 27.0743C10.6083 26.0452 12.1125 25.2337 13.775 24.64C15.4375 24.0462 17.1792 23.7493 19 23.7493C20.8208 23.7493 22.5625 24.0462 24.225 24.64C25.8875 25.2337 27.3917 26.0452 28.7375 27.0743C29.6611 25.9924 30.3802 24.7653 30.8948 23.3931C31.4094 22.0209 31.6667 20.5563 31.6667 18.9993C31.6667 15.4896 30.433 12.5011 27.9656 10.0337C25.4983 7.56636 22.5097 6.33268 19 6.33268C15.4903 6.33268 12.5017 7.56636 10.0344 10.0337C7.56701 12.5011 6.33333 15.4896 6.33333 18.9993C6.33333 20.5563 6.59062 22.0209 7.10521 23.3931C7.61979 24.7653 8.33889 25.9924 9.2625 27.0743ZM19 20.5827C17.4431 20.5827 16.1302 20.0483 15.0615 18.9796C13.9927 17.9108 13.4583 16.598 13.4583 15.041C13.4583 13.4841 13.9927 12.1712 15.0615 11.1025C16.1302 10.0337 17.4431 9.49935 19 9.49935C20.5569 9.49935 21.8698 10.0337 22.9385 11.1025C24.0073 12.1712 24.5417 13.4841 24.5417 15.041C24.5417 16.598 24.0073 17.9108 22.9385 18.9796C21.8698 20.0483 20.5569 20.5827 19 20.5827ZM19 34.8327C16.8097 34.8327 14.7514 34.4171 12.825 33.5858C10.8986 32.7546 9.22291 31.6264 7.79791 30.2014C6.37291 28.7764 5.24479 27.1007 4.41354 25.1743C3.58229 23.248 3.16666 21.1896 3.16666 18.9993C3.16666 16.8091 3.58229 14.7507 4.41354 12.8243C5.24479 10.898 6.37291 9.22227 7.79791 7.79727C9.22291 6.37227 10.8986 5.24414 12.825 4.41289C14.7514 3.58164 16.8097 3.16602 19 3.16602C21.1903 3.16602 23.2486 3.58164 25.175 4.41289C27.1014 5.24414 28.7771 6.37227 30.2021 7.79727C31.6271 9.22227 32.7552 10.898 33.5865 12.8243C34.4177 14.7507 34.8333 16.8091 34.8333 18.9993C34.8333 21.1896 34.4177 23.248 33.5865 25.1743C32.7552 27.1007 31.6271 28.7764 30.2021 30.2014C28.7771 31.6264 27.1014 32.7546 25.175 33.5858C23.2486 34.4171 21.1903 34.8327 19 34.8327Z" fill="white"/>
</svg>
