<svg width="25" height="23" viewBox="0 0 25 23" fill="none" xmlns="http://www.w3.org/2000/svg">
<path d="M22.6423 13.5025L11.9923 21.2425L1.34233 13.5025C1.19956 13.3975 1.09365 13.25 1.03977 13.0812C0.985882 12.9124 0.98678 12.7308 1.04233 12.5625L2.26233 8.78251L4.70233 1.27251C4.726 1.21132 4.76367 1.15652 4.81233 1.11251C4.89157 1.04013 4.99501 1 5.10233 1C5.20965 1 5.31309 1.04013 5.39233 1.11251C5.44371 1.16217 5.48158 1.22413 5.50233 1.29251L7.94233 8.78251H16.0423L18.4823 1.27251C18.506 1.21132 18.5437 1.15652 18.5923 1.11251C18.6716 1.04013 18.775 1 18.8823 1C18.9897 1 19.0931 1.04013 19.1723 1.11251C19.2237 1.16217 19.2616 1.22413 19.2823 1.29251L21.7223 8.80251L22.9923 12.5625C23.0429 12.736 23.0361 12.9211 22.973 13.0905C22.91 13.2598 22.794 13.4043 22.6423 13.5025Z" stroke="white" stroke-width="2" stroke-linecap="round" stroke-linejoin="round"/>
</svg>
